{
	"animations": [
		{
		  "channels": [
			{
			  "sampler": 0,
			  "target": {
				"node": 0,
				"path": "weights"
			  }
			}
		  ],
		  "samplers": [
			{
			  "input": 4,
			  "interpolation": "STEP",
			  "output": 5
			}
		  ]
		}
    ],
	"accessors": [
		{
			"bufferView": 0,
			"byteOffset": 0,
			"componentType": 5126,
			"count": 4,
			"max": [
				1.0,
				0.0,
				1.0
			],
			"min": [
				-1.0,
				0.0,
				-1.0
			],
			"normalized": false,
			"type": "VEC3"
		},
		{
			"bufferView": 1,
			"byteOffset": 0,
			"componentType": 5126,
			"count": 4,
			"max": [
				0.0,
				1.0,
				0.0
			],
			"min": [
				0.0,
				1.0,
				0.0
			],
			"normalized": false,
			"type": "VEC3"
		},
		{
			"bufferView": 2,
			"byteOffset": 0,
			"componentType": 5126,
			"count": 4,
			"max": [
				1.0,
				1.0
			],
			"min": [
				0.0,
				0.0
			],
			"normalized": false,
			"type": "VEC2"
		},
		{
			"bufferView": 3,
			"byteOffset": 0,
			"componentType": 5123,
			"count": 6,
			"max": [
				3.0
			],
			"min": [
				0.0
			],
			"normalized": false,
			"type": "SCALAR"
		},
		{
			"bufferView": 4,
			"componentType": 5126,
			"count": -1,
			"max": [
				0.0
			],
			"min": [
				0.0
			],
			"type": "SCALAR"
		},		
		{
			"bufferView": 5,
			"componentType": 5126,
			"count": -1,
			"type": "SCALAR"
		}		
	],
	"asset": {
		"version": "2.0"
	},
	"bufferViews": [
		{
			"buffer": 0,
			"byteLength": 48,
			"byteOffset": 0,
			"byteStride": 12
		},
		{
			"buffer": 0,
			"byteLength": 48,
			"byteOffset": 48,
			"byteStride": 12
		},
		{
			"buffer": 0,
			"byteLength": 32,
			"byteOffset": 96,
			"byteStride": 8
		},
		{
			"buffer": 0,
			"byteLength": 12,
			"byteOffset": 128
		},
		{
			"buffer": 0,
			"byteLength": -1,
			"byteOffset": 140
		},
		{
			"buffer": 0,
			"byteLength": -1,
			"byteOffset": -1
		}
	],
	"buffers": [
		{
			"byteLength": 140,
			"uri": "original.bin"
		}
	],
	"extensionsUsed": [
		"KHR_materials_unlit"
	],
	"images": [
		{
			"mimeType": "image/png",
			"uri": "pngegg.png"
		}
	],
	"materials": [
		{
			"alphaMode": "BLEND",
			"doubleSided": true,
			"extensions": {
				"KHR_materials_unlit": {}
			},
			"pbrMetallicRoughness": {
				"baseColorTexture": {
					"index": 0
				}
			}
		}
	],
	"meshes": [
		{
			"primitives": [
				{
					"attributes": {
						"NORMAL": 1,
						"POSITION": 0,
						"TEXCOORD_0": 2
					},
					"indices": 3,
					"material": 0,
					"mode": 4,
					"targets": [
					]					
				}
			],
			"weights": [				
			]

		}
	],
	"nodes": [
		{
			"mesh": 0
		}
	],
	"samplers": [
		{}
	],
	"scenes": [
		{
			"nodes": [
				0
			]
		}
	],
	"textures": [
		{
			"sampler": 0,
			"source": 0
		}
	]
}