{
	"animations": [
		{
		  "channels": [
			{
			  "sampler": 0,
			  "target": {
				"node": 0,
				"path": "weights"
			  }
			}
		  ],
		  "samplers": [
			{
			  "input": 10,
			  "interpolation": "STEP",
			  "output": 11
			}
		  ]
		}
    ],
    "accessors": [
		{
			"bufferView": 0,
			"byteOffset": 0,
			"componentType": 5126,
			"count": 4,
			"normalized": false,
			"max": [
				1.0,
				1.0,
				1.0
			],
			"min": [
				-1.0,
				-1.0,
				-1.0
			],
			"type": "VEC3"
		},
		{
			"bufferView": 1,
			"byteOffset": 0,
			"componentType": 5126,
			"count": 4,
			"normalized": false,
			"type": "VEC3"
		},
		{
			"bufferView": 2,
			"byteOffset": 0,
			"componentType": 5126,
			"count": 4,
			"normalized": false,
			"type": "VEC2"
		},
		{
			"bufferView": 3,
			"byteOffset": 0,
			"componentType": 5123,
			"count": 6,
			"normalized": false,
			"type": "SCALAR"
		},
		{
			"bufferView": 4,
			"byteOffset": 0,
			"componentType": 5126,
			"count": 4,
			"normalized": false,
			"type": "VEC2"
		},
		{
			"bufferView": 5,
			"byteOffset": 0,
			"componentType": 5126,
			"count": 4,
			"normalized": false,
			"type": "VEC2"
		},
		{
			"bufferView": 6,
			"byteOffset": 0,
			"componentType": 5126,
			"count": 4,			
			"normalized": false,
			"type": "VEC2"
		},
		{
			"bufferView": 7,
			"byteOffset": 0,
			"componentType": 5126,
			"count": 4,
			"normalized": false,
			"type": "VEC2"
		},
		{
			"bufferView": 8,
			"byteOffset": 0,
			"componentType": 5126,
			"count": 4,
			"normalized": false,
			"type": "VEC2"
		},
		{
			"bufferView": 9,
			"byteOffset": 0,
			"componentType": 5126,
			"count": 4,
			"normalized": false,
			"type": "VEC2"
		},
		{
			"bufferView": 10,
			"componentType": 5126,
			"count": 6,
			"max": [
				0.0
			],
			"min": [
				0.0
			],
			"type": "SCALAR"
		},		
		{
			"bufferView": 11,
			"componentType": 5126,
			"count": 36,
			"type": "SCALAR"
		}		
	],
	"asset": {
		"extras": {
			"created": "Fri Nov 19 13:47:23 2021"
		},
		"generator": "Gestaltor 2021.7.0  Development (internal) (dev-2a46303ab)",
		"version": "2.0"
	},
	"bufferViews": [
		{
			"buffer": 0,
			"byteLength": 48,
			"byteOffset": 0,
			"byteStride": 12
		},
		{
			"buffer": 0,
			"byteLength": 48,
			"byteOffset": 48,
			"byteStride": 12
		},
		{
			"buffer": 0,
			"byteLength": 32,
			"byteOffset": 96,
			"byteStride": 8
		},
		{
			"buffer": 0,
			"byteLength": 12,
			"byteOffset": 128
		},
		{
			"buffer": 0,
			"byteLength": 32,
			"byteOffset": 140,
			"byteStride": 8
		},
		{
			"buffer": 0,
			"byteLength": 32,
			"byteOffset": 172,
			"byteStride": 8
		},
		{
			"buffer": 0,
			"byteLength": 32,
			"byteOffset": 204,
			"byteStride": 8
		},
		{
			"buffer": 0,
			"byteLength": 32,
			"byteOffset": 236,
			"byteStride": 8
		},
		{
			"buffer": 0,
			"byteLength": 32,
			"byteOffset": 268,
			"byteStride": 8
		},
		{
			"buffer": 0,
			"byteLength": 32,
			"byteOffset": 300,
			"byteStride": 8
		},
		{
			"buffer": 0,
			"byteLength": 24,
			"byteOffset": 332
		},
		{
			"buffer": 0,
			"byteLength": 144,
			"byteOffset": 356
		}
	],
	"buffers": [
		{
			"byteLength": 500,
			"uri": "original.bin"
		}
	],
	"extensionsUsed": [
		"KHR_materials_unlit"
	],
	"images": [
		{
			"uri": "pngegg.png"
		}
	],
	"materials": [
		{
			"alphaMode": "MASK",
			"extensions": {
				"KHR_materials_unlit": {}
			},
			"pbrMetallicRoughness": {
				"baseColorTexture": {
					"index": 0
				}
			}
		}
	],
	"meshes": [
		{
			"primitives": [
				{
					"attributes": {
						"NORMAL": 1,
						"POSITION": 0,
						"TEXCOORD_0": 2
					},
					"indices": 3,
					"material": 0,
					"mode": 4,
					"targets": [
						{
						  "TEXCOORD_0": 4
						},
						{
						  "TEXCOORD_0": 5
						},
						{
						  "TEXCOORD_0": 6
						},
						{
						  "TEXCOORD_0": 7
						},
						{
						  "TEXCOORD_0": 8
						},
						{
						  "TEXCOORD_0": 9
						}
					]					
				}
			],
			"weights": [
				1.0,
				0.0,
				0.0,
				0.0,
				0.0,
				0.0
			]
		}
	],
	"nodes": [
		{
			"mesh": 0
		}
	],
	"samplers": [
		{}
	],
	"scene": 0,
	"scenes": [
		{
			"name": "Scene",
			"nodes": [
				0
			]
		}
	],
	"textures": [
		{
			"sampler": 0,
			"source": 0
		}
	]
}